<svg xmlns="http://www.w3.org/2000/svg" viewBox="0 0 260 60" fill="none">
  <!-- Icon mark -->
  <path d="M30 6L14 11v10c0 8 5.6 15.4 16 17.6C40.4 36.4 46 29 46 21V11L30 6z"
        fill="#0EA5E9" opacity=".15"/>
  <path d="M30 6L14 11v10c0 8 5.6 15.4 16 17.6C40.4 36.4 46 29 46 21V11L30 6z"
        stroke="#0EA5E9" stroke-width="2.2" stroke-linejoin="round"/>
  <circle cx="30" cy="20" r="2.5" fill="#0EA5E9"/>
  <circle cx="30" cy="20" r="6"   stroke="#0EA5E9" stroke-width="1.4" opacity=".65" stroke-dasharray="2 1.5"/>
  <circle cx="30" cy="20" r="10"  stroke="#0EA5E9" stroke-width="1"   opacity=".35" stroke-dasharray="2 2"/>
  <line x1="30" y1="20" x2="37" y2="13" stroke="#22C55E" stroke-width="1.8" stroke-linecap="round"/>
  <circle cx="37" cy="13" r="1.8" fill="#22C55E"/>
  <!-- Wordmark -->
  <text x="60" y="24" font-family="-apple-system, BlinkMacSystemFont, 'Segoe UI', sans-serif"
        font-size="17" font-weight="700" fill="#0F172A" letter-spacing="-0.3">
    Security Radar
  </text>
  <text x="60" y="40" font-family="-apple-system, BlinkMacSystemFont, 'Segoe UI', sans-serif"
        font-size="10.5" font-weight="400" fill="#64748B" letter-spacing="0.3">
    MALWARE SCANNER · FILE MONITOR · HARDENING
  </text>
</svg>
